<svg width="110" height="42" viewBox="0 0 110 42" fill="none" xmlns="http://www.w3.org/2000/svg">
<path d="M105.841 41.4642C91.7296 39.2127 73.5323 37.9726 54.6003 37.9726C35.6677 37.9726 17.4697 39.2127 3.35864 41.4642L0 42V0L3.35867 0.535751C17.4676 2.78764 35.6656 4.02777 54.6004 4.02777C73.5352 4.02777 91.7325 2.78767 105.841 0.535751L109.2 0V42L105.841 41.4642Z" fill="#273576"/>
<path d="M1 2L2.67934 2.26786C16.8606 4.53123 35.1395 5.77773 54.148 5.77773C73.1559 5.77773 91.4347 4.53123 105.616 2.26786L107.295 2V40.574L105.616 40.3062C91.4305 38.0428 73.1517 36.7966 54.148 36.7966C35.1429 36.7966 16.8641 38.0428 2.67934 40.3062L1 40.574V2Z" fill="white"/>
<path d="M54.6953 34.6206C73.783 34.6206 92.1294 35.873 106.391 38.1483V3C92.1329 5.27536 73.7866 6.52776 54.6953 6.52776C35.604 6.52776 17.2578 5.27536 3 3V38.1483C17.2607 35.8729 35.607 34.6206 54.6953 34.6206Z" fill="#273576"/>
<path d="M30.5903 26V32.0253H30V26H30.5903Z" fill="white"/>
<path d="M36.9206 26V32.0253H36.2959L32.5902 26.9225V32.0253H32V26H32.6245L36.3387 31.1028V26H36.9206Z" fill="white"/>
<path d="M40.3446 26.5603C39.5231 26.5603 38.9839 26.9138 38.9839 27.4742C38.9839 29.1637 42.3988 28.293 42.39 30.5084C42.39 31.4909 41.5171 32.1289 40.2422 32.1289C39.4072 32.1195 38.6065 31.7932 38 31.2151L38.2737 30.7237C38.8031 31.2467 39.5094 31.5485 40.2506 31.5686C41.1661 31.5686 41.7395 31.1719 41.7395 30.5343C41.748 28.8015 38.3337 29.7067 38.3337 27.5173C38.3337 26.5949 39.1552 26 40.3788 26C41.032 26.0033 41.6716 26.1883 42.2272 26.5344L41.9705 27.0429C41.4816 26.7374 40.9198 26.5706 40.3446 26.5603Z" fill="white"/>
<path d="M46.4817 31.5513C47.6628 31.5513 48.3643 30.827 48.3643 29.5859V26H48.9549V29.5859C48.9549 31.1546 48.0305 32.0857 46.4817 32.0857C44.9244 32.0857 44 31.1546 44 29.5859V26H44.5905V29.5859C44.5905 30.827 45.3007 31.5513 46.4817 31.5513Z" fill="white"/>
<path d="M54.9449 32.0253L53.6527 30.0598C53.5157 30.0684 53.379 30.077 53.2332 30.077H51.5902V32.0252H51V26H53.2332C54.7224 26 55.5782 26.724 55.5782 27.9999C55.6096 28.4367 55.4881 28.8707 55.2348 29.2265C54.9816 29.5824 54.6126 29.8377 54.1919 29.9481L55.6297 32.0253H54.9449ZM53.2332 29.5427C54.3629 29.5427 55.0134 29.0083 55.0134 28.0172C55.0134 27.0429 54.3629 26.5344 53.2332 26.5344H51.5902V29.5429L53.2332 29.5427Z" fill="white"/>
<path d="M60.6553 30.422H57.3349L56.6334 32.0253H56L58.6956 26H59.3118L62.0074 32.0253H61.3653L60.6553 30.422ZM60.4243 29.8876L58.9866 26.6294L57.5659 29.8876H60.4243Z" fill="white"/>
<path d="M67.9208 26V32.0253H67.2961L63.5902 26.9225V32.0253H63V26H63.6245L67.3386 31.1028V26H67.9208Z" fill="white"/>
<path d="M72.1159 26.5265C71.785 26.524 71.457 26.5875 71.1506 26.7133C70.8442 26.8391 70.5656 27.0248 70.3307 27.2595C70.0959 27.4943 69.9095 27.7736 69.7823 28.0813C69.6551 28.3889 69.5896 28.7189 69.5896 29.0522C69.5896 29.3855 69.6551 29.7154 69.7823 30.0231C69.9095 30.3308 70.0959 30.6101 70.3307 30.8448C70.5656 31.0796 70.8442 31.2653 71.1506 31.3911C71.457 31.5169 71.785 31.5804 72.1159 31.5779C72.7878 31.5702 73.4323 31.3086 73.9218 30.845L74.2809 31.233C73.6864 31.7952 72.9056 32.1148 72.0902 32.1296C71.6859 32.1359 71.2845 32.061 70.9093 31.9093C70.5341 31.7576 70.1927 31.5321 69.905 31.246C69.6173 30.9599 69.3891 30.6189 69.2337 30.2429C69.0783 29.8669 68.9989 29.4636 69 29.0563C69.0012 28.6491 69.0829 28.2462 69.2403 27.8711C69.3978 27.496 69.6279 27.1563 69.9172 26.8718C70.2065 26.5873 70.5492 26.3638 70.9252 26.2142C71.3013 26.0646 71.7031 25.9921 72.1073 26.0007C72.9109 26.004 73.6838 26.3117 74.2724 26.8627L73.9218 27.2763C73.4401 26.7985 72.792 26.5294 72.1159 26.5265Z" fill="white"/>
<path d="M80.0049 26V26.5344H76.59V28.6895H79.6451V29.2239H76.59V31.491H80.1161V32.0254H76V26H80.0049Z" fill="white"/>
<path d="M10.5133 11L14.0977 18.2919L17.6642 11H21.1777V23.4671H18.3174L18.2999 15.5707L15.1395 22.2222H13.056L9.87786 15.5707V23.4671H7V11H10.5133Z" fill="white"/>
<path d="M32.5345 21.2617H27.1848L26.3194 23.4671H23L28.3147 11H31.6341L36.8248 23.4671H33.3819L32.5345 21.2617ZM31.581 18.772L29.8862 14.3258L28.1557 18.772H31.581Z" fill="white"/>
<path d="M41.0432 11L43.3563 14.5391L45.6871 11H49.5007L45.422 16.958L49.8535 23.4671H45.9872L43.3563 19.6078L40.7783 23.4671H37L41.3962 17.118L37.2824 11H41.0432Z" fill="white"/>
<path d="M69.7219 11L65.5375 23.4671H62.2181L59.8698 14.9838L57.4864 23.4671H54.1671L50 11H53.4784L55.9149 20.1058L58.3514 11H61.5117L63.9835 20.1058L66.4025 11H69.7219Z" fill="white"/>
<path d="M81.7638 11V13.5966H75.231V15.9263H81.1283V18.5051L75.231 18.5228V20.8703H81.9401V23.467H72V11H81.7638Z" fill="white"/>
<path d="M87.231 11V20.6927H92.4753V23.4671H84V11H87.231Z" fill="white"/>
<path d="M98.231 11V20.6927H103.475V23.4671H95V11H98.231Z" fill="white"/>
</svg>
