<svg width="111" height="42" viewBox="0 0 111 42" fill="none" xmlns="http://www.w3.org/2000/svg">
<path d="M106.741 41.4642C92.6296 39.2127 74.4323 37.9726 55.5003 37.9726C36.5676 37.9726 18.3696 39.2127 4.25863 41.4642L0.899994 42V0L4.25867 0.535751C18.3676 2.78764 36.5656 4.02777 55.5004 4.02777C74.4352 4.02777 92.6325 2.78767 106.741 0.535751L110.1 0V42L106.741 41.4642Z" fill="#273576"/>
<path d="M2.35236 1.71301L4.03169 1.98087C18.2129 4.24425 36.4918 5.49074 55.5003 5.49074C74.5082 5.49074 92.787 4.24425 106.968 1.98087L108.648 1.71301V40.287L106.968 40.0192C92.7829 37.7558 74.504 36.5097 55.5003 36.5097C36.4953 36.5097 18.2165 37.7558 4.03169 40.0192L2.35236 40.287V1.71301Z" fill="white"/>
<path d="M55.5 35.0466C74.5878 35.0466 92.9341 36.299 107.195 38.5743V3.42603C92.9376 5.70139 74.5913 6.95378 55.5 6.95378C36.4087 6.95378 18.0625 5.70139 3.80472 3.42603V38.5743C18.0654 36.2989 36.4117 35.0466 55.5 35.0466Z" fill="#273576"/>
<path d="M31.1315 26.1573V32.1826H30.5412V26.1573H31.1315Z" fill="white"/>
<path d="M37.9357 26.1573V32.1826H37.311L33.6053 27.0798V32.1826H33.0151V26.1573H33.6396L37.3538 31.2602V26.1573H37.9357Z" fill="white"/>
<path d="M41.5231 26.6572C40.7016 26.6572 40.1624 27.0108 40.1624 27.5711C40.1624 29.2606 43.5773 28.39 43.5685 30.6053C43.5685 31.5878 42.6956 32.2258 41.4207 32.2258C40.5857 32.2164 39.785 31.8901 39.1785 31.312L39.4522 30.8206C39.9816 31.3436 40.6879 31.6455 41.4291 31.6655C42.3446 31.6655 42.918 31.2688 42.918 30.6312C42.9265 28.8985 39.5122 29.8037 39.5122 27.6142C39.5122 26.6918 40.3337 26.0969 41.5573 26.0969C42.2105 26.1002 42.8501 26.2852 43.4056 26.6314L43.149 27.1399C42.6601 26.8343 42.0983 26.6676 41.5231 26.6572Z" fill="white"/>
<path d="M47.378 31.7C48.559 31.7 49.2606 30.9757 49.2606 29.7346V26.1487H49.8512V29.7346C49.8512 31.3033 48.9268 32.2344 47.378 32.2344C45.8206 32.2344 44.8963 31.3033 44.8963 29.7346V26.1487H45.4868V29.7346C45.4868 30.9757 46.1969 31.7 47.378 31.7Z" fill="white"/>
<path d="M55.544 32.1826L54.2518 30.2171C54.1148 30.2257 53.9781 30.2344 53.8323 30.2344H52.1893V32.1825H51.5991V26.1573H53.8323C55.3215 26.1573 56.1773 26.8813 56.1773 28.1573C56.2087 28.594 56.0872 29.028 55.8339 29.3839C55.5807 29.7398 55.2117 29.9951 54.791 30.1054L56.2288 32.1826H55.544ZM53.8323 29.7001C54.962 29.7001 55.6125 29.1657 55.6125 28.1745C55.6125 27.2003 54.962 26.6918 53.8323 26.6918H52.1893V29.7002L53.8323 29.7001Z" fill="white"/>
<path d="M61.5445 30.5794H58.2241L57.5226 32.1826H56.8892L59.5848 26.1573H60.201L62.8966 32.1826H62.2545L61.5445 30.5794ZM61.3135 30.045L59.8757 26.7867L58.4551 30.045H61.3135Z" fill="white"/>
<path d="M68.8034 26.1573V32.1826H68.1787L64.4728 27.0798V32.1826H63.8826V26.1573H64.5071L68.2213 31.2602V26.1573H68.8034Z" fill="white"/>
<path d="M73.2379 26.6314C72.907 26.6289 72.5789 26.6924 72.2726 26.8182C71.9662 26.944 71.6875 27.1296 71.4527 27.3644C71.2179 27.5992 71.0315 27.8785 70.9043 28.1861C70.7771 28.4938 70.7116 28.8238 70.7116 29.157C70.7116 29.4903 70.7771 29.8203 70.9043 30.128C71.0315 30.4356 71.2179 30.7149 71.4527 30.9497C71.6875 31.1845 71.9662 31.3701 72.2726 31.4959C72.5789 31.6217 72.907 31.6852 73.2379 31.6827C73.9097 31.675 74.5542 31.4135 75.0437 30.9498L75.4029 31.3378C74.8083 31.9001 74.0275 32.2196 73.2122 32.2344C72.8079 32.2408 72.4065 32.1659 72.0313 32.0142C71.6561 31.8625 71.3147 31.637 71.027 31.3509C70.7393 31.0647 70.5111 30.7237 70.3557 30.3478C70.2003 29.9718 70.1209 29.5684 70.122 29.1612C70.1231 28.7539 70.2048 28.351 70.3623 27.9759C70.5198 27.6009 70.7499 27.2612 71.0392 26.9767C71.3285 26.6922 71.6712 26.4686 72.0472 26.3191C72.4233 26.1695 72.8251 26.0969 73.2293 26.1055C74.0329 26.1088 74.8057 26.4166 75.3943 26.9676L75.0437 27.3812C74.5621 26.9034 73.9139 26.6342 73.2379 26.6314Z" fill="white"/>
<path d="M80.7019 26.1573V26.6918H77.2871V28.8468H80.3422V29.3812H77.2871V31.6483H80.8132V32.1828H76.6971V26.1573H80.7019Z" fill="white"/>
<path d="M11.527 10.6135L15.1114 17.9055L18.6779 10.6135H22.1914V23.0806H19.3311L19.3136 15.1842L16.1532 21.8357H14.0697L10.8915 15.1842V23.0806H8.01367V10.6135H11.527Z" fill="white"/>
<path d="M33.2787 20.8753H27.929L27.0636 23.0806H23.7442L29.0589 10.6135H32.3783L37.569 23.0806H34.1261L33.2787 20.8753ZM32.3252 18.3855L30.6304 13.9393L28.8999 18.3855H32.3252Z" fill="white"/>
<path d="M42.0351 10.6135L44.3483 14.1526L46.679 10.6135H50.4926L46.4139 16.5715L50.8454 23.0806H46.9791L44.3483 19.2213L41.7702 23.0806H37.9919L42.3882 16.7315L38.2743 10.6135H42.0351Z" fill="white"/>
<path d="M71.0783 10.6135L66.8939 23.0806H63.5745L61.2262 14.5973L58.8429 23.0806H55.5235L51.3564 10.6135H54.8348L57.2713 19.7193L59.7078 10.6135H62.8681L65.3399 19.7193L67.7589 10.6135H71.0783Z" fill="white"/>
<path d="M82.4478 10.6135V13.2102H75.9149V15.5398H81.8123V18.1186L75.9149 18.1363V20.4839H82.6241V23.0805H72.684V10.6135H82.4478Z" fill="white"/>
<path d="M88.2736 10.6135V20.3062H93.5179V23.0806H85.0426V10.6135H88.2736Z" fill="white"/>
<path d="M98.6546 10.6135V20.3062H103.899V23.0806H95.4236V10.6135H98.6546Z" fill="white"/>
</svg>
