<svg width="23" height="23" viewBox="0 0 23 23" fill="none" xmlns="http://www.w3.org/2000/svg">
<path d="M0.18103 4C0.18103 1.79086 1.97189 0 4.18103 0H18.4224C20.6316 0 22.4224 1.79086 22.4224 4V18.2414C22.4224 20.4505 20.6315 22.2414 18.4224 22.2414H4.18103C1.97189 22.2414 0.18103 20.4505 0.18103 18.2414V4Z" fill="#3D54B8"/>
<path fill-rule="evenodd" clip-rule="evenodd" d="M9.53731 14.7807L6.93158 12.175C6.46965 11.713 5.72072 11.713 5.2588 12.175C4.79687 12.6369 4.79687 13.3858 5.2588 13.8477L8.80729 17.3962C9.30873 17.8976 10.1356 17.8482 10.5738 17.2906L18.8536 7.82797C19.2572 7.3143 19.168 6.57071 18.6543 6.16711C18.1406 5.76351 17.397 5.85274 16.9934 6.36641L9.53731 14.7807Z" fill="white"/>
</svg>
