<svg width="32" height="35" viewBox="0 0 32 35" fill="none" xmlns="http://www.w3.org/2000/svg">
<g clip-path="url(#clip0_535_5706)">
<path d="M16.0313 16.7964C20.4555 16.7964 24.0421 13.3935 24.0421 9.19597C24.0421 4.99839 20.4555 1.59558 16.0313 1.59558C11.6071 1.59558 8.02063 4.99839 8.02063 9.19597C8.02063 13.3935 11.6071 16.7964 16.0313 16.7964Z" stroke="#E3E9FF" stroke-width="2.27419"/>
<path d="M24.042 19.8365H24.606C25.7773 19.8368 26.9081 20.2429 27.7861 20.9785C28.6641 21.7141 29.2287 22.7285 29.3739 23.8313L30.0004 28.58C30.0567 29.0078 30.0165 29.442 29.8825 29.854C29.7484 30.2659 29.5235 30.6461 29.2227 30.9692C28.922 31.2924 28.5522 31.5512 28.138 31.7284C27.7237 31.9056 27.2745 31.9972 26.8201 31.9971H5.24246C4.78806 31.9972 4.33884 31.9056 3.92461 31.7284C3.51038 31.5512 3.14061 31.2924 2.83985 30.9692C2.53908 30.6461 2.3142 30.2659 2.18013 29.854C2.04606 29.442 2.00586 29.0078 2.06221 28.58L2.68704 23.8313C2.83235 22.728 3.39746 21.7131 4.2761 20.9775C5.15474 20.2418 6.28638 19.8361 7.45822 19.8365H8.02058" stroke="#E3E9FF" stroke-width="2.27419" stroke-linecap="round" stroke-linejoin="round"/>
</g>
<defs>
<clipPath id="clip0_535_5706">
<rect width="30.2703" height="35" fill="white" transform="translate(0.896362 0.302277)"/>
</clipPath>
</defs>
</svg>
