<svg width="65" height="47" viewBox="0 0 65 47" fill="none" stroke="current" xmlns="http://www.w3.org/2000/svg">
<g clip-path="url(#clip0_949_3908)">
<path d="M15.0107 30.2008C19.4349 30.2008 23.0214 26.798 23.0214 22.6004C23.0214 18.4028 19.4349 15 15.0107 15C10.5865 15 7 18.4028 7 22.6004C7 26.798 10.5865 30.2008 15.0107 30.2008Z" stroke="current" stroke-width="2.27419"/>
<path d="M23.0045 33H23.5685C24.7398 33.0003 25.8706 33.4064 26.7486 34.142C27.6266 34.8776 28.1912 35.892 28.3365 36.9948L28.9629 41.7435C29.0193 42.1713 28.9791 42.6055 28.845 43.0175C28.7109 43.4294 28.486 43.8096 28.1853 44.1327C27.8845 44.4559 27.5147 44.7147 27.1005 44.8919C26.6863 45.0691 26.237 45.1607 25.7826 45.1606H4.20498C3.75059 45.1607 3.30137 45.0691 2.88713 44.8919C2.4729 44.7147 2.10313 44.4559 1.80237 44.1327C1.50161 43.8096 1.27673 43.4294 1.14265 43.0175C1.00858 42.6055 0.968385 42.1713 1.02473 41.7435L1.64957 36.9948C1.79487 35.8915 2.35998 34.8767 3.23862 34.141C4.11726 33.4053 5.24891 32.9996 6.42075 33H6.9831" stroke="current" stroke-width="2.27419" stroke-linecap="round" stroke-linejoin="round"/>
</g>
<g clip-path="url(#clip1_949_3908)">
<path d="M49.0107 30.2008C53.4349 30.2008 57.0214 26.798 57.0214 22.6004C57.0214 18.4028 53.4349 15 49.0107 15C44.5865 15 41 18.4028 41 22.6004C41 26.798 44.5865 30.2008 49.0107 30.2008Z" stroke="current" stroke-width="2.27419"/>
<path d="M57.0045 33H57.5685C58.7398 33.0003 59.8706 33.4064 60.7486 34.142C61.6266 34.8776 62.1912 35.892 62.3365 36.9948L62.9629 41.7435C63.0193 42.1713 62.9791 42.6055 62.845 43.0175C62.7109 43.4294 62.486 43.8096 62.1853 44.1327C61.8845 44.4559 61.5147 44.7147 61.1005 44.8919C60.6863 45.0691 60.237 45.1607 59.7826 45.1606H38.205C37.7506 45.1607 37.3014 45.0691 36.8871 44.8919C36.4729 44.7147 36.1031 44.4559 35.8024 44.1327C35.5016 43.8096 35.2767 43.4294 35.1427 43.0175C35.0086 42.6055 34.9684 42.1713 35.0247 41.7435L35.6496 36.9948C35.7949 35.8915 36.36 34.8767 37.2386 34.141C38.1173 33.4053 39.2489 32.9996 40.4207 33H40.9831" stroke="current" stroke-width="2.27419" stroke-linecap="round" stroke-linejoin="round"/>
</g>
<defs>
<clipPath id="clip0_949_3908">
<rect width="30" height="47" fill="white"/>
</clipPath>
<clipPath id="clip1_949_3908">
<rect width="31" height="47" fill="white" transform="translate(34)"/>
</clipPath>
</defs>
</svg>
