<svg width="31" height="34" viewBox="0 0 31 34" fill="none" stroke="current" xmlns="http://www.w3.org/2000/svg">
<path d="M15.0107 17.2008C19.4349 17.2008 23.0214 13.798 23.0214 9.60039C23.0214 5.40281 19.4349 2 15.0107 2C10.5865 2 7 5.40281 7 9.60039C7 13.798 10.5865 17.2008 15.0107 17.2008Z" stroke="current" stroke-width="2.27419"/>
<path d="M23.0045 20H23.5685C24.7398 20.0003 25.8706 20.4064 26.7486 21.142C27.6266 21.8776 28.1912 22.892 28.3365 23.9948L28.9629 28.7435C29.0193 29.1713 28.9791 29.6055 28.845 30.0175C28.7109 30.4294 28.486 30.8096 28.1853 31.1327C27.8845 31.4559 27.5147 31.7147 27.1005 31.8919C26.6863 32.0691 26.237 32.1607 25.7826 32.1606H4.20498C3.75059 32.1607 3.30137 32.0691 2.88713 31.8919C2.4729 31.7147 2.10313 31.4559 1.80237 31.1327C1.50161 30.8096 1.27673 30.4294 1.14265 30.0175C1.00858 29.6055 0.968385 29.1713 1.02473 28.7435L1.64957 23.9948C1.79487 22.8915 2.35998 21.8767 3.23862 21.141C4.11726 20.4053 5.24891 19.9996 6.42075 20H6.9831" stroke="current" stroke-width="2.27419" stroke-linecap="round" stroke-linejoin="round"/>
</svg>
