<svg width="35" height="42" viewBox="0 0 35 42" fill="current" stroke="current" xmlns="http://www.w3.org/2000/svg">
<path d="M33.6451 13.1426C31.8052 5.38848 24.971 0 17.0854 0C7.62273 0 0 7.62273 0 17.0854C0 26.0224 6.9656 33.3823 15.7712 34.0394V40.6107C15.7712 41.3993 16.2969 41.925 17.0854 41.925C17.874 41.925 18.3997 41.3993 18.3997 40.6107V21.8168L24.5767 15.6397C25.1024 15.114 25.1024 14.3255 24.5767 13.7998C24.051 13.2741 23.2625 13.2741 22.7368 13.7998L18.3997 18.2683V14.3255L14.0626 9.9884C13.5369 9.4627 12.7484 9.4627 12.2226 9.9884C11.6969 10.5141 11.6969 11.3027 12.2226 11.8284L15.7712 15.3769V23.5253L10.777 18.5311C10.2513 18.0054 9.4627 18.0054 8.93699 18.5311C8.41129 19.0568 8.41129 19.8454 8.93699 20.3711L15.7712 27.2052V31.4109C8.41129 30.7538 2.62853 24.5767 2.62853 17.0854C2.62853 9.06842 9.06842 2.62853 17.0854 2.62853C25.1024 2.62853 31.5423 9.06842 31.5423 17.0854C31.5423 23.5253 27.2053 29.1766 21.0282 31.0166V33.7766C30.2281 31.5423 35.8794 22.3425 33.6451 13.1426Z" />
</svg>
